<?xml version="1.0" encoding="utf-8" ?>
<svg baseProfile="tiny" height="100%" version="1.2" width="100%" xmlns="http://www.w3.org/2000/svg" xmlns:ev="http://www.w3.org/2001/xml-events" xmlns:xlink="http://www.w3.org/1999/xlink"><defs /><path d="M 25,17 L 24,17 L 23,17 L 22,17 L 21,17 L 20,17 L 20,16 L 19,16 L 18,16 L 18,15 L 17,15 L 17,14 L 16,14 L 16,13 L 15,13 L 15,12 L 14,12 L 14,11 L 13,11 L 12,11 L 12,10 L 11,10 L 11,9 L 10,9 L 10,8 L 9,8 L 9,7 L 8,7 L 8,6 L 8,5 L 9,4 L 9,4 L 10,3 L 11,3 L 11,3 L 12,2 L 13,2 L 13,2 L 14,1 L 15,1 L 15,1 L 16,0 L 17,0 L 18,0 L 18,1 L 18,2 L 19,2 L 19,3 L 19,4 L 19,5 L 20,5 L 20,6 L 20,7 L 21,7 L 21,8 L 21,9 L 21,10 L 22,10 L 22,11 L 22,12 L 23,12 L 24,12 L 24,12 L 24,11 L 25,10 L 25,10 L 25,9 L 25,8 L 26,7 L 26,7 L 26,6 L 26,5 L 27,4 L 27,4 L 27,3 L 28,2 L 28,2 L 28,1 L 29,0 L 30,0 L 31,0 L 31,1 L 32,1 L 33,1 L 33,2 L 34,2 L 35,2 L 35,3 L 36,3 L 36,4 L 37,4 L 38,4 L 38,5 L 38,6 L 38,7 L 38,7 L 37,8 L 37,8 L 36,9 L 36,9 L 35,10 L 35,10 L 34,10 L 33,11 L 33,11 L 32,12 L 32,12 L 31,13 L 31,13 L 30,14 L 30,14 L 29,15 L 29,15 L 28,15 L 27,16 L 27,16 L 26,16 L 25,17 L 25,17 Z" fill="black" /><path d="M 6,39 L 5,39 L 5,38 L 4,38 L 3,38 L 3,37 L 3,36 L 2,36 L 2,35 L 2,34 L 1,34 L 1,33 L 1,32 L 0,32 L 0,31 L 0,30 L 0,29 L 1,28 L 2,28 L 2,28 L 3,27 L 4,27 L 5,27 L 5,27 L 6,26 L 7,26 L 7,26 L 8,25 L 9,25 L 10,25 L 10,25 L 11,24 L 12,24 L 12,24 L 12,23 L 11,23 L 11,22 L 10,22 L 9,22 L 9,21 L 8,21 L 7,21 L 6,21 L 6,20 L 5,20 L 4,20 L 3,20 L 3,19 L 2,19 L 1,19 L 1,18 L 0,18 L 0,17 L 0,16 L 1,15 L 1,15 L 1,14 L 2,13 L 2,13 L 2,12 L 3,11 L 3,11 L 3,10 L 4,9 L 4,9 L 5,8 L 6,8 L 7,8 L 7,9 L 7,10 L 8,10 L 8,11 L 9,11 L 9,12 L 10,12 L 10,13 L 11,13 L 11,14 L 12,14 L 12,15 L 12,16 L 13,16 L 13,17 L 14,17 L 14,18 L 15,18 L 15,19 L 16,19 L 16,20 L 16,21 L 16,22 L 16,23 L 16,24 L 16,25 L 16,26 L 16,27 L 16,27 L 15,28 L 15,29 L 15,29 L 14,30 L 14,30 L 13,31 L 13,31 L 12,32 L 12,32 L 11,33 L 11,33 L 10,34 L 10,35 L 10,35 L 9,36 L 9,36 L 8,37 L 8,37 L 7,38 L 7,38 L 6,39 L 6,39 Z" fill="black" /><path d="M 41,39 L 40,39 L 40,38 L 39,38 L 39,37 L 38,37 L 38,36 L 37,36 L 37,35 L 36,35 L 36,34 L 35,34 L 35,33 L 34,33 L 34,32 L 33,32 L 33,31 L 33,30 L 32,30 L 32,29 L 31,29 L 31,28 L 30,28 L 30,27 L 30,26 L 29,26 L 29,25 L 29,24 L 29,23 L 29,22 L 30,21 L 30,21 L 30,20 L 31,19 L 31,19 L 31,18 L 32,17 L 32,17 L 33,16 L 33,16 L 34,15 L 34,15 L 35,14 L 35,14 L 36,13 L 36,13 L 36,12 L 37,11 L 37,11 L 38,10 L 38,10 L 39,9 L 39,9 L 40,8 L 41,8 L 42,8 L 42,9 L 42,10 L 43,10 L 43,11 L 43,12 L 44,12 L 44,13 L 44,14 L 45,14 L 45,15 L 45,16 L 46,16 L 46,17 L 46,18 L 46,18 L 45,19 L 45,19 L 44,19 L 43,19 L 42,20 L 42,20 L 41,20 L 40,21 L 40,21 L 39,21 L 38,21 L 37,22 L 37,22 L 36,22 L 35,22 L 34,23 L 34,24 L 35,24 L 35,25 L 36,25 L 37,25 L 38,25 L 38,26 L 39,26 L 40,26 L 41,26 L 41,27 L 42,27 L 43,27 L 43,28 L 44,28 L 45,28 L 45,29 L 46,29 L 46,30 L 46,31 L 46,31 L 45,32 L 45,33 L 45,33 L 44,34 L 44,35 L 44,35 L 43,36 L 43,37 L 43,37 L 42,38 L 42,38 L 41,39 L 41,39 Z" fill="black" /><path d="M 32,46 L 31,46 L 30,46 L 29,46 L 28,46 L 28,45 L 27,45 L 27,44 L 27,43 L 27,42 L 26,42 L 26,41 L 26,40 L 25,40 L 25,39 L 25,38 L 25,37 L 24,37 L 24,36 L 24,35 L 24,34 L 23,34 L 22,35 L 22,36 L 22,36 L 21,37 L 21,38 L 21,39 L 21,39 L 20,40 L 20,41 L 20,42 L 20,42 L 19,43 L 19,44 L 19,44 L 18,45 L 18,46 L 18,46 L 17,46 L 16,46 L 15,46 L 14,46 L 14,45 L 13,45 L 12,45 L 12,44 L 11,44 L 10,44 L 10,43 L 9,43 L 9,42 L 8,42 L 8,41 L 8,40 L 9,39 L 9,39 L 10,38 L 10,38 L 11,37 L 12,37 L 12,37 L 13,36 L 13,36 L 14,35 L 14,35 L 15,34 L 15,34 L 16,33 L 16,33 L 17,32 L 18,32 L 18,32 L 19,31 L 19,31 L 20,30 L 21,30 L 22,30 L 23,30 L 24,30 L 25,30 L 26,30 L 27,30 L 27,31 L 28,31 L 28,32 L 29,32 L 29,33 L 30,33 L 31,33 L 31,34 L 32,34 L 32,35 L 33,35 L 33,36 L 34,36 L 34,37 L 35,37 L 35,38 L 36,38 L 36,39 L 37,39 L 38,39 L 38,40 L 38,41 L 38,42 L 38,42 L 37,43 L 37,43 L 36,43 L 35,44 L 35,44 L 34,45 L 34,45 L 33,45 L 32,46 L 32,46 Z" fill="black" /></svg>